<!-- icon666.com - MILLIONS vector ICONS FREE --><svg viewBox="0 0 64 64" xmlns="http://www.w3.org/2000/svg"><g id="Layer_6" data-name="Layer 6"><path d="m56.1 2.58a1 1 0 0 0 -1 1v5.17h-11.6v-3.5a1 1 0 0 0 -2 0v3.5h-8.5v-5.17a1 1 0 1 0 -2 0v.67h-7.75v-.67a1 1 0 1 0 -2 0v.67h-7.92v-.67a1 1 0 0 0 -2 0v56.84a1 1 0 0 0 1 1h43.77a1 1 0 0 0 1-1v-56.84a1 1 0 0 0 -1-1zm-32.85 35.74v-5.32h7.75v2.06zm7.75-13.74h-7.75v-4.33h7.75zm-9.75 0h-7.92v-4.33h7.92zm-7.92 2h7.92v4.42h-7.92zm9.92 0h7.75v4.42h-7.75zm9.75-3.08h8.5v3.5h-8.5zm0-2v-2.83h8.5v2.83zm10.5-2.83h11.6v2.83h-11.6zm11.6-2h-11.6v-2h11.6zm-13.6 0h-8.5v-2h8.5zm-10.5 1.58h-7.75v-4.92h7.75zm-9.75 0h-7.92v-4.92h7.92zm-7.92 14.75h7.92v6.16l-7.92 3.33zm19.67-4h8.5v1.64l-8.5 3.58zm10.5 0h1.9l-1.9.8zm6.65-2h-6.65v-3.5h11.6v1.42zm5-16.25v2h-11.65v-2zm-13.6 0v2h-8.55v-2zm-10.55-4.5v5.08h-7.75v-5.08zm-9.75 0v5.08h-7.92v-5.08zm8.35 53v-9h5.13v9zm25.5.17h-18.37v-10.17a1 1 0 0 0 -1-1h-7.13a1 1 0 0 0 -1 1v10.17h-14.27v-14.76l19-8 .19-.08 18.25-7.68h.05l4.32-1.82z" fill="#000000" style="fill: rgb(255, 179, 66);"></path><path d="m47.79 34.61a1 1 0 0 0 -1 1v5.59a1 1 0 0 0 1 1h5.59a1 1 0 0 0 1-1v-5.59a1 1 0 0 0 -1-1zm4.59 5.59h-3.59v-3.59h3.59z" fill="#000000" style="fill: rgb(255, 179, 66);"></path><path d="m53.38 43.13h-5.59a1 1 0 0 0 -1 1v5.58a1 1 0 0 0 1 1h5.59a1 1 0 0 0 1-1v-5.58a1 1 0 0 0 -1-1zm-1 5.58h-3.59v-3.58h3.59z" fill="#000000" style="fill: rgb(255, 179, 66);"></path><path d="m45.29 34.77h-5.58a1 1 0 0 0 -1 1v5.58a1 1 0 0 0 1 1h5.58a1 1 0 0 0 1-1v-5.58a1 1 0 0 0 -1-1zm-1 5.58h-3.58v-3.58h3.58z" fill="#000000" style="fill: rgb(255, 179, 66);"></path><path d="m21.25 46.54h-5.58a1 1 0 0 0 -1 1v5.59a1 1 0 0 0 1 1h5.58a1 1 0 0 0 1-1v-5.59a1 1 0 0 0 -1-1zm-1 5.59h-3.58v-3.59h3.58z" fill="#000000" style="fill: rgb(255, 179, 66);"></path><path d="m45.29 43.13h-5.58a1 1 0 0 0 -1 1v5.58a1 1 0 0 0 1 1h5.58a1 1 0 0 0 1-1v-5.58a1 1 0 0 0 -1-1zm-1 5.58h-3.58v-3.58h3.58z" fill="#000000" style="fill: rgb(255, 179, 66);"></path></g></svg>