<!-- icon666.com - MILLIONS vector ICONS FREE --><svg viewBox="0 0 64 64" xmlns="http://www.w3.org/2000/svg"><g id="Geodetic"><path d="m40.81 18.75h-17.62a1 1 0 0 1 -1-1v-12.45a1 1 0 0 1 1-1h17.62a1 1 0 0 1 1 1v12.45a1 1 0 0 1 -1 1zm-16.62-2h15.62v-10.45h-15.62z" fill="#000000" style="fill: rgb(250, 180, 60);"></path><path d="m47.48 15.75h-6.67a1 1 0 0 1 -1-1v-5.56a1 1 0 0 1 1-1h6.67a1 1 0 0 1 1 1v5.56a1 1 0 0 1 -1 1zm-5.67-2h4.67v-3.56h-4.67z" fill="#000000" style="fill: rgb(250, 180, 60);"></path><path d="m35.92 23.5h-7.84a1 1 0 0 1 -1-1v-4.75a1 1 0 0 1 2 0v3.75h5.84v-3.75a1 1 0 0 1 2 0v4.75a1 1 0 0 1 -1 1z" fill="#000000" style="fill: rgb(250, 180, 60);"></path><path d="m35.92 6.3h-7.84a1 1 0 0 1 0-2h7.84a1 1 0 0 1 0 2z" fill="#000000" style="fill: rgb(250, 180, 60);"></path><path d="m13.52 59.7h-8.22a1 1 0 0 1 -.85-1.53l22.78-36.17a1 1 0 0 1 1.7 1l-21.82 34.7h5.83l14.86-26.3a1 1 0 1 1 1.74 1l-15.15 26.79a1 1 0 0 1 -.87.51z" fill="#000000" style="fill: rgb(250, 180, 60);"></path><path d="m51.57 60.19a1 1 0 0 1 -.86-.49l-16.24-27.54a1 1 0 0 1 1.72-1l15.93 27 4.88-.34-21.93-34.82a1 1 0 0 1 1.7-1l22.78 36.2a1 1 0 0 1 -.78 1.53l-7.13.49z" fill="#000000" style="fill: rgb(250, 180, 60);"></path><path d="m32 15.17a3.65 3.65 0 1 1 3.65-3.64 3.65 3.65 0 0 1 -3.65 3.64zm0-5.29a1.65 1.65 0 1 0 1.65 1.65 1.65 1.65 0 0 0 -1.65-1.65z" fill="#000000" style="fill: rgb(250, 180, 60);"></path><path d="m35.33 59.7h-6.66a1 1 0 0 1 -1-1v-36.2a1 1 0 0 1 1-1h6.66a1 1 0 0 1 1 1v36.2a1 1 0 0 1 -1 1zm-5.66-2h4.66v-34.2h-4.66z" fill="#000000" style="fill: rgb(250, 180, 60);"></path><path d="m28.67 51.48a1 1 0 0 1 -.63-.22l-7.19-5.88a1 1 0 0 1 1.27-1.55l7.18 5.88a1 1 0 0 1 .14 1.41 1 1 0 0 1 -.77.36z" fill="#000000" style="fill: rgb(250, 180, 60);"></path><path d="m35.33 51.48a1 1 0 0 1 -.53-1.84l8.09-5.11a1 1 0 0 1 1.38.31 1 1 0 0 1 -.27 1.38l-8.1 5.11a1 1 0 0 1 -.57.15z" fill="#000000" style="fill: rgb(250, 180, 60);"></path></g></svg>