<!-- icon666.com - MILLIONS vector ICONS FREE --><svg id="Capa_1" enable-background="new 0 0 512 512" viewBox="0 0 512 512" xmlns="http://www.w3.org/2000/svg"><g><path d="m458.25 0h-356.86c-5.523 0-10 4.477-10 10v37.747h-37.64c-5.523 0-10 4.477-10 10v444.253c0 5.523 4.477 10 10 10h356.86c5.523 0 10-4.477 10-10v-37.747h37.641c5.523 0 10-4.477 10-10v-444.253c-.001-5.523-4.478-10-10.001-10zm-394.5 492v-424.253h275.899v51.118c0 5.523 4.477 10 10 10h50.96v363.135zm336.859-397.321-26.862-26.932h26.862zm-14.098 14.186h-26.862v-26.931zm61.739 335.388h-27.641v-386.506c0-5.523-4.477-10-10-10h-299.218v-27.747h336.86v424.253z"></path><path d="m232.179 97.506c-81.619 0-148.021 66.402-148.021 148.021s66.402 148.021 148.021 148.021 148.021-66.402 148.021-148.021-66.402-148.021-148.021-148.021zm0 276.042c-70.591 0-128.021-57.43-128.021-128.021s57.43-128.021 128.021-128.021 128.021 57.43 128.021 128.021c.001 70.591-57.429 128.021-128.021 128.021z"></path><path d="m251.998 225.878h-39.636c-5.523 0-10 4.477-10 10v83.184c0 5.523 4.477 10 10 10h39.636c5.523 0 10-4.477 10-10v-83.184c0-5.523-4.477-10-10-10zm-10 83.184h-19.636v-63.184h19.636z"></path><path d="m251.998 149.181h-39.636c-5.523 0-10 4.477-10 10v39.656c0 5.523 4.477 10 10 10h39.636c5.523 0 10-4.477 10-10v-39.656c0-5.523-4.477-10-10-10zm-10 39.656h-19.636v-19.656h19.636z"></path><path d="m312.122 409.313h-160.851c-5.523 0-10 4.477-10 10s4.477 10 10 10h160.851c5.523 0 10-4.477 10-10s-4.477-10-10-10z"></path><path d="m282.543 447.078h-100.727c-5.523 0-10 4.477-10 10s4.477 10 10 10h100.727c5.523 0 10-4.477 10-10s-4.477-10-10-10z"></path></g></svg>