<!-- icon666.com - MILLIONS vector ICONS FREE --><svg viewBox="0 0 64 64" xmlns="http://www.w3.org/2000/svg"><g id="Measuring_Tape" data-name="Measuring Tape"><path d="m34.5 46.83h-23.33a7 7 0 0 1 -7-7v-17.33a7 7 0 0 1 7-7h9.25a15.1 15.1 0 0 1 15.08 15.08v15.25a1 1 0 0 1 -1 1zm-23.33-29.33a5 5 0 0 0 -5 5v17.33a5 5 0 0 0 5 5h22.33v-14.25a13.1 13.1 0 0 0 -13.08-13.08z" fill="#000000" style="fill: rgb(255, 179, 66);"></path><path d="m19.83 40.67a8.67 8.67 0 1 1 8.67-8.67 8.67 8.67 0 0 1 -8.67 8.67zm0-15.34a6.67 6.67 0 1 0 6.67 6.67 6.67 6.67 0 0 0 -6.67-6.67z" fill="#000000" style="fill: rgb(255, 179, 66);"></path><path d="m58.7 46.83h-24.2a1 1 0 0 1 -1-1v-6.16a1 1 0 0 1 1-1h24.2a1 1 0 0 1 1 1v6.16a1 1 0 0 1 -1 1zm-23.2-2h22.2v-4.16h-22.2z" fill="#000000" style="fill: rgb(255, 179, 66);"></path><path d="m58.7 59.7a1 1 0 0 1 -1-.72l-3.82-12.86a1 1 0 0 1 1.91-.57l1.91 6.33v-6.05a1 1 0 0 1 2 0v12.87a1 1 0 0 1 -.86 1z" fill="#000000" style="fill: rgb(255, 179, 66);"></path><path d="m34 27.91a1 1 0 0 1 -.75-.34 1 1 0 0 1 .09-1.41l.61-.54a3.88 3.88 0 0 0 .34-5.46l-2.29-2.66a3.87 3.87 0 0 0 -5.45-.33l-1 .84a1 1 0 0 1 -1.32-1.5l1-.84a5.87 5.87 0 0 1 8.28.52l2.28 2.66a5.89 5.89 0 0 1 -.53 8.27l-.61.54a1 1 0 0 1 -.65.25z" fill="#000000" style="fill: rgb(255, 179, 66);"></path><path d="m38.08 46.83a1 1 0 0 1 -1-1v-2.83a1 1 0 1 1 2 0v2.87a1 1 0 0 1 -1 .96z" fill="#000000" style="fill: rgb(255, 179, 66);"></path><path d="m41.79 46.83a1 1 0 0 1 -1-1v-2.83a1 1 0 0 1 2 0v2.87a1 1 0 0 1 -1 .96z" fill="#000000" style="fill: rgb(255, 179, 66);"></path><path d="m45.38 46.83a1 1 0 0 1 -1-1v-2.83a1 1 0 0 1 2 0v2.87a1 1 0 0 1 -1 .96z" fill="#000000" style="fill: rgb(255, 179, 66);"></path><path d="m49.13 46.83a1 1 0 0 1 -1-1v-2.83a1 1 0 0 1 2 0v2.87a1 1 0 0 1 -1 .96z" fill="#000000" style="fill: rgb(255, 179, 66);"></path><path d="m53.29 46.83a1 1 0 0 1 -1-1v-2.83a1 1 0 0 1 2 0v2.87a1 1 0 0 1 -1 .96z" fill="#000000" style="fill: rgb(255, 179, 66);"></path></g></svg>