<!-- icon666.com - MILLIONS vector ICONS FREE --><svg viewBox="0 0 64 64" xmlns="http://www.w3.org/2000/svg"><g id="Ruler"><path d="m58.7 59.7h-53.4a1 1 0 0 1 -1-1v-53.4a1 1 0 0 1 1-1h12a1 1 0 0 1 1 1v40.37h40.4a1 1 0 0 1 1 1v12a1 1 0 0 1 -1 1.03zm-52.4-2h51.4v-10h-40.37a1 1 0 0 1 -1-1v-40.4h-10.03z" fill="#000000" style="fill: rgb(255, 179, 66);"></path><path d="m17.33 14.52h-4.59a1 1 0 1 1 0-2h4.59a1 1 0 0 1 0 2z" fill="#000000" style="fill: rgb(255, 179, 66);"></path><path d="m17.33 10.41h-7.92a1 1 0 0 1 0-2h7.92a1 1 0 0 1 0 2z" fill="#000000" style="fill: rgb(255, 179, 66);"></path><path d="m17.33 18.13h-8.07a1 1 0 0 1 0-2h8.07a1 1 0 0 1 0 2z" fill="#000000" style="fill: rgb(255, 179, 66);"></path><path d="m17.33 26.52h-4.59a1 1 0 1 1 0-2h4.59a1 1 0 0 1 0 2z" fill="#000000" style="fill: rgb(255, 179, 66);"></path><path d="m17.33 22.41h-7.92a1 1 0 0 1 0-2h7.92a1 1 0 0 1 0 2z" fill="#000000" style="fill: rgb(255, 179, 66);"></path><path d="m17.33 30.13h-8.07a1 1 0 0 1 0-2h8.07a1 1 0 0 1 0 2z" fill="#000000" style="fill: rgb(255, 179, 66);"></path><path d="m17.33 38.52h-4.59a1 1 0 0 1 0-2h4.59a1 1 0 0 1 0 2z" fill="#000000" style="fill: rgb(255, 179, 66);"></path><path d="m17.33 34.41h-7.92a1 1 0 1 1 0-2h7.92a1 1 0 0 1 0 2z" fill="#000000" style="fill: rgb(255, 179, 66);"></path><path d="m17.33 42.13h-8.07a1 1 0 1 1 0-2h8.07a1 1 0 0 1 0 2z" fill="#000000" style="fill: rgb(255, 179, 66);"></path><path d="m5.3 59.7a1 1 0 0 1 -.7-.3 1 1 0 0 1 0-1.4l12-12a1 1 0 1 1 1.4 1.37l-12 12.03a1 1 0 0 1 -.7.3z" fill="#000000" style="fill: rgb(255, 179, 66);"></path><path d="m27.29 40.39a1 1 0 0 1 -.73-.31 1 1 0 0 1 -.23-1l3-10a1.08 1.08 0 0 1 .25-.41l15.54-15.6a6.29 6.29 0 0 1 10.75 4.43 6.2 6.2 0 0 1 -1.87 4.5l-15.52 15.59a.93.93 0 0 1 -.48.27l-10.48 2.5zm3.86-10.39-2.41 8 8.52-2 15.36-15.46a4.29 4.29 0 0 0 -6.08-6.06z" fill="#000000" style="fill: rgb(255, 179, 66);"></path><path d="m37.77 37.89a1 1 0 0 1 -.71-.29l-7.5-7.47a1 1 0 0 1 0-1.41 1 1 0 0 1 1.42 0l7.5 7.47a1 1 0 0 1 0 1.41 1 1 0 0 1 -.71.29z" fill="#000000" style="fill: rgb(255, 179, 66);"></path></g></svg>