<svg width="164" height="131" viewBox="0 0 164 131" fill="none" xmlns="http://www.w3.org/2000/svg">
<g filter="url(#filter0_d_6_6)">
<rect width="70" height="70.1063" transform="matrix(0.68968 0.724114 -0.738808 0.673916 55.7951 0)" fill="#1C2752"/>
<rect width="70" height="70.1063" transform="matrix(0.68968 0.724114 -0.738808 0.673916 55.7951 0)" fill="url(#paint0_linear_6_6)" fill-opacity="0.2"/>
</g>
<g filter="url(#filter1_d_6_6)">
<rect width="70" height="70.1063" transform="matrix(0.68968 0.724114 -0.738808 0.673916 109.678 25)" fill="#FFB342"/>
<rect width="70" height="70.1063" transform="matrix(0.68968 0.724114 -0.738808 0.673916 109.678 25)" fill="url(#paint1_linear_6_6)" fill-opacity="0.2"/>
<rect width="70" height="70.1063" transform="matrix(0.68968 0.724114 -0.738808 0.673916 109.678 25)" fill="url(#paint2_linear_6_6)" fill-opacity="0.2"/>
</g>
<path d="M62.7936 68.1379L50.3862 51.3806L45.9118 51.3565L45.8195 68.0466L41.4161 68.0229L41.6174 31.6598L46.0207 31.6835L45.9334 47.4503L47.851 47.4606L62.4977 31.7721L67.7533 31.8004L52.9634 47.7012L68.0493 68.1661L62.7936 68.1379Z" fill="#FFFDFD"/>
<path d="M92.6174 54.6598L96.9497 54.6831L96.7913 83.3049L97.1464 83.3068L117.191 54.792L121.452 54.8149L121.251 91.178L116.848 91.1543L117.006 62.6036L116.65 62.6017L96.6774 91.0458L92.4161 91.0229L92.6174 54.6598Z" fill="white"/>
<defs>
<filter id="filter0_d_6_6" x="0" y="0" width="108.073" height="105.934" filterUnits="userSpaceOnUse" color-interpolation-filters="sRGB">
<feFlood flood-opacity="0" result="BackgroundImageFix"/>
<feColorMatrix in="SourceAlpha" type="matrix" values="0 0 0 0 0 0 0 0 0 0 0 0 0 0 0 0 0 0 127 0" result="hardAlpha"/>
<feOffset dy="4"/>
<feGaussianBlur stdDeviation="2"/>
<feComposite in2="hardAlpha" operator="out"/>
<feColorMatrix type="matrix" values="0 0 0 0 0 0 0 0 0 0 0 0 0 0 0 0 0 0 0.25 0"/>
<feBlend mode="normal" in2="BackgroundImageFix" result="effect1_dropShadow_6_6"/>
<feBlend mode="normal" in="SourceGraphic" in2="effect1_dropShadow_6_6" result="shape"/>
</filter>
<filter id="filter1_d_6_6" x="53.8831" y="25" width="108.073" height="105.934" filterUnits="userSpaceOnUse" color-interpolation-filters="sRGB">
<feFlood flood-opacity="0" result="BackgroundImageFix"/>
<feColorMatrix in="SourceAlpha" type="matrix" values="0 0 0 0 0 0 0 0 0 0 0 0 0 0 0 0 0 0 127 0" result="hardAlpha"/>
<feOffset dy="4"/>
<feGaussianBlur stdDeviation="2"/>
<feComposite in2="hardAlpha" operator="out"/>
<feColorMatrix type="matrix" values="0 0 0 0 0 0 0 0 0 0 0 0 0 0 0 0 0 0 0.25 0"/>
<feBlend mode="normal" in2="BackgroundImageFix" result="effect1_dropShadow_6_6"/>
<feBlend mode="normal" in="SourceGraphic" in2="effect1_dropShadow_6_6" result="shape"/>
</filter>
<linearGradient id="paint0_linear_6_6" x1="44.1513" y1="25.3271" x2="1.26735" y2="40.8185" gradientUnits="userSpaceOnUse">
<stop stop-color="#1C2752"/>
<stop offset="0.945099" stop-color="white"/>
</linearGradient>
<linearGradient id="paint1_linear_6_6" x1="0.475403" y1="31.1202" x2="25.5754" y2="21.4109" gradientUnits="userSpaceOnUse">
<stop stop-color="#FFB342" stop-opacity="0.08"/>
<stop offset="1" stop-color="#FFB342"/>
</linearGradient>
<linearGradient id="paint2_linear_6_6" x1="23.8445" y1="46.8535" x2="0.697786" y2="54.4949" gradientUnits="userSpaceOnUse">
<stop stop-color="#FFB342"/>
<stop offset="1" stop-color="#FFFDFD"/>
</linearGradient>
</defs>
</svg>
